<?xml version="1.0" standalone="no"?>
<!DOCTYPE svg PUBLIC "-//W3C//DTD SVG 20010904//EN"
 "http://www.w3.org/TR/2001/REC-SVG-20010904/DTD/svg10.dtd">
<svg version="1.0" xmlns="http://www.w3.org/2000/svg"
 width="208.000000pt" height="206.000000pt" viewBox="0 0 208.000000 206.000000"
 preserveAspectRatio="xMidYMid meet">

<g transform="translate(0.000000,206.000000) scale(0.100000,-0.100000)"
fill="#000000" stroke="none">
<path d="M417 1524 c-4 -4 -7 -308 -7 -676 l0 -668 168 2 167 3 0 670 0 670
-161 3 c-88 1 -163 -1 -167 -4z"/>
<path d="M1400 944 c-79 -19 -216 -27 -282 -16 -32 5 -58 8 -58 6 0 -1 28 -15
63 -32 174 -82 221 -185 236 -512 5 -94 13 -175 20 -188 11 -21 16 -22 186
-22 l175 0 -19 38 c-16 30 -21 75 -29 252 -16 334 -41 404 -164 466 -53 27
-52 27 -128 8z"/>
</g>
</svg>
